<?xml version="1.0" encoding="UTF-8"?>
<svg width="42px" height="22px" viewBox="0 0 42 22" version="1.1" xmlns="http://www.w3.org/2000/svg" xmlns:xlink="http://www.w3.org/1999/xlink">
    <!-- Generator: Sketch 51.3 (57544) - http://www.bohemiancoding.com/sketch -->
    <title>Group 3</title>
    <desc>Created with Sketch.</desc>
    <defs></defs>
    <g id="Page-1" stroke="none" stroke-width="1" fill="none" fill-rule="evenodd">
        <g id="Home-Copy" transform="translate(-827.000000, -570.000000)" fill="#FFFFFF">
            <g id="Group-3" transform="translate(827.000000, 570.000000)">
                <path d="M1.53425161,21.5018065 L8.6814129,21.5018065 L8.6814129,21.5032258 L11.7798645,21.5032258 C11.6968323,21.0036129 11.6514129,20.4905161 11.6514129,19.9681935 C11.6514129,14.8187742 15.839929,10.6295484 20.9893484,10.6295484 C26.1373484,10.6295484 30.3279935,14.8180645 30.3279935,19.9681935 C30.3279935,20.4905161 30.2818645,21.0036129 30.1988323,21.5032258 L33.2972839,21.5032258 L33.2972839,21.5018065 L40.4430258,21.5018065 C41.2910903,21.5018065 41.9787677,20.814129 41.9787677,19.9681935 C41.9787677,19.120129 41.2910903,18.433871 40.4430258,18.433871 L33.2979935,18.433871 C33.0162516,16.1600645 32.1185097,14.0757419 30.773671,12.3533548 L33.6585097,9.46851613 C34.2581871,8.86954839 34.2581871,7.898 33.6585097,7.29903226 C33.0595419,6.69935484 32.0872839,6.70006452 31.4883161,7.29903226 L28.6048968,10.183871 C26.8818,8.84045161 24.7981871,7.94129032 22.523671,7.65954839 L22.523671,1.53432258 C22.523671,0.686967742 21.8367032,0 20.9893484,0 C20.1419935,0 19.4550258,0.686967742 19.4550258,1.53432258 L19.4550258,7.65954839 C17.1812194,7.94129032 15.0968968,8.84045161 13.3745097,10.183871 L10.4903806,7.29903226 C9.89070323,6.70006452 8.91915484,6.70006452 8.3201871,7.29903226 C7.72121935,7.898 7.72121935,8.86954839 8.3201871,9.46851613 L11.2043161,12.3533548 C9.86089677,14.0757419 8.96315484,16.1600645 8.68070323,18.433871 L1.53425161,18.433871 C0.686896774,18.433871 -7.09677419e-05,19.120129 -7.09677419e-05,19.9681935 C0.000638709677,20.814129 0.687606452,21.5018065 1.53425161,21.5018065" id="Fill-1"></path>
            </g>
        </g>
    </g>
</svg>