<?xml version="1.0" encoding="UTF-8"?>
<svg width="182px" height="68px" viewBox="0 0 182 68" version="1.1" xmlns="http://www.w3.org/2000/svg" xmlns:xlink="http://www.w3.org/1999/xlink">
    <!-- Generator: Sketch 51.3 (57544) - http://www.bohemiancoding.com/sketch -->
    <title>Group 3</title>
    <desc>Created with Sketch.</desc>
    <defs></defs>
    <g id="Page-1" stroke="none" stroke-width="1" fill="none" fill-rule="evenodd">
        <g id="Create-a-new-project-Copy-2" transform="translate(-51.000000, -24.000000)" fill="#FFFFFF">
            <g id="Group-3" transform="translate(51.000000, 24.000000)">
                <path d="M12.3958333,19.7239037 L20.9399074,19.7239037 L20.9399074,53.2271259 L26.4032037,53.2271259 L26.4032037,51.5743481 L29.474537,51.5743481 L29.474537,46.0650889 L26.4032037,46.0650889 L26.4032037,43.6869778 L29.474537,43.6869778 L29.474537,38.1777185 L26.4032037,38.1777185 L26.4032037,19.7239037 L34.9869444,19.7239037 L34.9869444,14.4986074 L12.3958333,14.4986074 L12.3958333,19.7239037 Z M4.95801852,62.7672741 L43.5228333,62.7672741 L43.5228333,4.95845926 L4.95801852,4.95845926 L4.95801852,62.7672741 Z M0.000314814815,67.7256074 L48.4817963,67.7256074 L48.4817963,0.000125925926 L0.000314814815,0.000125925926 L0.000314814815,67.7256074 Z M145.708574,40.3543481 L140.235204,24.5197926 L133.810463,24.5197926 L142.406167,47.1398667 L149.056944,47.1398667 L157.652648,24.5197926 L151.228537,24.5197926 L145.708574,40.3543481 Z M164.392204,33.7035704 C165.070944,30.8079037 167.197204,29.1337185 170.318907,29.1337185 C172.76187,29.1337185 175.205463,30.4458667 175.928907,33.7035704 L164.392204,33.7035704 Z M181.764944,35.8298296 C181.764944,29.1796815 177.015019,23.8863852 170.318907,23.8863852 C163.216685,23.8863852 158.375463,29.0890148 158.375463,35.8298296 C158.375463,42.5706444 163.171352,47.7732741 170.771611,47.7732741 C175.114796,47.7732741 178.50787,46.0090519 180.63413,42.9326815 L175.928907,40.2183481 C174.933463,41.5304963 173.123907,42.4806074 170.862278,42.4806074 C167.785907,42.4806074 165.297611,41.2137926 164.4835,38.2280889 L181.538907,38.2280889 C181.674907,37.4586815 181.764944,36.6892741 181.764944,35.8298296 Z M121.143574,42.073237 C117.705796,42.073237 115.036796,39.4942741 115.036796,35.8298296 C115.036796,32.1653852 117.705796,29.5864222 121.143574,29.5864222 C124.627315,29.5864222 127.296944,32.1653852 127.296944,35.8298296 C127.296944,39.4942741 124.627315,42.073237 121.143574,42.073237 Z M121.143574,23.8863852 C114.492796,23.8863852 109.20013,29.0890148 109.20013,35.8298296 C109.20013,42.5706444 114.492796,47.7732741 121.143574,47.7732741 C127.793722,47.7732741 133.132981,42.5706444 133.132981,35.8298296 C133.132981,29.0890148 127.793722,23.8863852 121.143574,23.8863852 Z M71.4702037,21.4427926 L79.9758704,21.4427926 L79.9758704,47.1398667 L86.2192778,47.1398667 L86.2192778,21.4427926 L94.7696481,21.4427926 L94.7696481,15.4713852 L71.4702037,15.4713852 L71.4702037,21.4427926 Z M100.967093,28.4102741 L100.967093,24.5197926 L95.1304259,24.5197926 L95.1304259,47.1398667 L100.967093,47.1398667 L100.967093,36.3278667 C100.967093,31.5773111 104.812241,30.2198296 107.843907,30.5818667 L107.843907,24.0670889 C104.992944,24.0670889 102.143241,25.3339037 100.967093,28.4102741 Z" id="Fill-1"></path>
            </g>
        </g>
    </g>
</svg>