<?xml version="1.0" encoding="UTF-8"?>
<svg width="35px" height="37px" viewBox="0 0 35 37" version="1.1" xmlns="http://www.w3.org/2000/svg" xmlns:xlink="http://www.w3.org/1999/xlink">
    <!-- Generator: Sketch 51.3 (57544) - http://www.bohemiancoding.com/sketch -->
    <title>Group 3</title>
    <desc>Created with Sketch.</desc>
    <defs></defs>
    <g id="Page-1" stroke="none" stroke-width="1" fill="none" fill-rule="evenodd">
        <g id="Home-Copy" transform="translate(-831.000000, -628.000000)" fill="#FFFFFF">
            <g id="Group-3" transform="translate(831.000000, 628.000000)">
                <path d="M17.5,27.7892092 C12.3531087,27.7892092 8.1632487,23.6312599 8.13262939,18.5067419 C8.15541585,13.3765464 12.3474121,9.20937146 17.5,9.20937146 C22.6468913,9.20937146 26.8367513,13.3687401 26.8673706,18.4925485 C26.8445841,23.6227439 22.6525879,27.7892092 17.5,27.7892092 M35,18.4513877 C34.9992879,17.6047529 34.3099976,16.9177935 33.4604899,16.9177935 L29.8495483,16.9177935 L29.8495483,16.9163742 L29.8345947,16.9163742 C29.5383708,14.6802079 28.6468506,12.6313942 27.3174032,10.9331569 L30.2119954,8.04906305 C30.8137004,7.45010261 30.8137004,6.47856609 30.2119954,5.87889599 C29.6110026,5.27922589 28.6354574,5.27993555 28.0344645,5.87889599 L25.1405843,8.76369948 C23.4123739,7.4210062 21.3217163,6.52114621 19.0395101,6.24011738 L19.0395101,1.53359418 C19.0395101,0.686959357 18.3502197,0 17.5,0 C16.6497803,0 15.9604899,0.686959357 15.9604899,1.53359418 L15.9604899,6.24011738 C13.6789958,6.52114621 11.5876261,7.4210062 9.85941569,8.76369948 L6.96553548,5.87889599 C6.36383057,5.27993555 5.3889974,5.27993555 4.78800456,5.87889599 C4.18701172,6.47856609 4.18701172,7.45010261 4.78800456,8.04906305 L7.68188477,10.9331569 C6.35386149,12.6313942 5.46234131,14.6802079 5.16540527,16.9163742 L5.15045166,16.9163742 L5.15045166,16.9177935 L1.54093424,16.9177935 C0.690002441,16.9177935 0,17.6047529 0,18.4513877 C0,18.4677101 0.00427246094,18.4833228 0.00498453776,18.4996452 C0.00427246094,18.5166772 0,18.5315803 0,18.5486123 C0.000712076823,19.3938278 0.690002441,20.0822065 1.53951009,20.0822065 L5.15045166,20.0822065 L5.15045166,20.0836258 L5.16540527,20.0836258 C5.46162923,22.3183727 6.35314941,24.3686058 7.68259684,26.0654238 L4.78800456,28.950937 C4.18629964,29.5491877 4.18629964,30.5214339 4.78800456,31.1196847 C5.3889974,31.7193548 6.36454264,31.7186451 6.96553548,31.1196847 L9.85941569,28.2355908 C11.5876261,29.5782841 13.6782837,30.4774345 15.9604899,30.7598826 L15.9604899,35.4649865 C15.9604899,36.3130406 16.6497803,37 17.5,37 C18.3502197,37 19.0395101,36.3130406 19.0395101,35.4649865 L19.0395101,30.7598826 C21.3210042,30.4774345 23.4123739,29.5782841 25.1405843,28.2355908 L28.0344645,31.1196847 C28.6361694,31.7186451 29.6110026,31.7186451 30.2119954,31.1196847 C30.8129883,30.5214339 30.8129883,29.5491877 30.2119954,28.950937 L27.3181152,26.0654238 C28.6461385,24.3686058 29.5376587,22.3183727 29.8345947,20.0836258 L29.8495483,20.0836258 L29.8495483,20.0822065 L33.4590658,20.0822065 C34.3099976,20.0822065 35,19.3938278 35,18.5486123 C35,18.5315803 34.9957275,18.5166772 34.9950155,18.4996452 C34.9957275,18.4833228 35,18.4677101 35,18.4513877" id="Fill-1"></path>
            </g>
        </g>
    </g>
</svg>