<?xml version="1.0" encoding="UTF-8"?>
<svg width="24px" height="24px" viewBox="0 0 24 24" version="1.1" xmlns="http://www.w3.org/2000/svg" xmlns:xlink="http://www.w3.org/1999/xlink">
    <!-- Generator: Sketch 51.3 (57544) - http://www.bohemiancoding.com/sketch -->
    <title>Fill 1</title>
    <desc>Created with Sketch.</desc>
    <defs></defs>
    <g id="Page-1" stroke="none" stroke-width="1" fill="none" fill-rule="evenodd">
        <g id="Create-a-new-project-Copy-2" transform="translate(-204.000000, -157.000000)" fill="#939699">
            <path d="M227.286472,178.946073 L221.970178,173.543964 C222.61626,172.718636 223.133117,171.752642 223.520764,170.645955 C223.908414,169.539267 224.102235,168.385704 224.102235,167.185226 C224.102235,165.778423 223.834577,164.456043 223.299251,163.218053 C222.782387,161.980062 222.067098,160.901527 221.153354,159.982412 C220.239611,159.0633 219.173595,158.331772 217.955271,157.787808 C216.736946,157.262597 215.435574,157 214.051119,157 C212.666661,157 211.365289,157.262597 210.146964,157.787808 C208.92864,158.331772 207.862624,159.0633 206.948881,159.982412 C206.035139,160.901527 205.319846,161.980062 204.802982,163.218053 C204.267658,164.456043 204,165.778423 204,167.185226 C204,168.610792 204.267658,169.942549 204.802982,171.18054 C205.319846,172.418528 206.035139,173.497063 206.948881,174.416178 C207.862624,175.335293 208.92864,176.066821 210.146964,176.610785 C211.365289,177.135993 212.666661,177.398593 214.051119,177.398593 C215.23252,177.398593 216.349303,177.201643 217.40149,176.807739 C218.453677,176.413831 219.422784,175.888631 220.308836,175.232123 L225.62513,180.634232 C225.754348,180.765534 225.897406,180.85932 226.054311,180.915592 C226.211216,180.971864 226.345045,181 226.455804,181 C226.56656,181 226.700389,180.971864 226.857294,180.915592 C227.014199,180.85932 227.157257,180.765534 227.286472,180.634232 C227.526446,180.390386 227.646431,180.109028 227.646431,179.790152 C227.646431,179.471276 227.526446,179.189919 227.286472,178.946073 Z M206.381256,167.185226 C206.381256,166.116054 206.575078,165.10317 206.962726,164.146539 C207.368834,163.208671 207.917995,162.383354 208.610222,161.670571 C209.302453,160.957792 210.11927,160.404457 211.060704,160.010549 C211.983673,159.597886 212.980471,159.391558 214.051119,159.391558 C215.121764,159.391558 216.118562,159.597886 217.041534,160.010549 C217.982965,160.404457 218.799782,160.957792 219.492013,161.670571 C220.18424,162.383354 220.733403,163.208671 221.139511,164.146539 C221.527157,165.10317 221.720979,166.116054 221.720979,167.185226 C221.720979,168.273157 221.527157,169.286045 221.139511,170.223913 C220.751861,171.161784 220.198087,171.996479 219.478169,172.728018 C219.478169,172.728018 219.478169,172.728018 219.478169,172.728018 C219.478169,172.728018 219.478169,172.728018 219.478169,172.728018 C218.776709,173.440801 217.964503,173.998825 217.041534,174.402111 C216.118562,174.805393 215.121764,175.007035 214.051119,175.007035 C212.980471,175.007035 211.983673,174.800704 211.060704,174.38804 C210.11927,173.97538 209.302453,173.417353 208.610222,172.713951 C207.917995,172.010546 207.368834,171.180544 206.962726,170.223913 C206.575078,169.286045 206.381256,168.273157 206.381256,167.185226 Z" id="Fill-1"></path>
        </g>
    </g>
</svg>